<svg width="30" height="29" viewBox="0 0 30 29" fill="none" xmlns="http://www.w3.org/2000/svg">
<ellipse cx="6.22222" cy="6.22222" rx="6.22222" ry="6.22222" transform="matrix(-1 0 0 1 18.0815 1)" stroke="black" stroke-width="1.5"/>
<path d="M0.970703 22.6762C0.970703 21.3378 1.81203 20.144 3.0724 19.6939V19.6939C8.75477 17.6644 14.9644 17.6644 20.6468 19.6939V19.6939C21.9072 20.144 22.7485 21.3378 22.7485 22.6762V25.9162C22.7485 27.1333 21.6705 28.0682 20.4656 27.8961L15.678 27.2122C13.1452 26.8503 10.5739 26.8503 8.04122 27.2122L3.25354 27.8961C2.04868 28.0682 0.970703 27.1333 0.970703 25.9162V22.6762Z" stroke="black" stroke-width="1.5"/>
<path d="M22.7485 13.4444H28.9707" stroke="black" stroke-width="1.5" stroke-linecap="round" stroke-linejoin="round"/>
<path d="M25.8599 10.3334L25.8599 16.5556" stroke="black" stroke-width="1.5" stroke-linecap="round" stroke-linejoin="round"/>
</svg>
