<svg width="25" height="24" viewBox="0 0 25 24" fill="none" xmlns="http://www.w3.org/2000/svg">
<path d="M3.88251 21.7002L4.35103 22.2859L4.35103 22.2859L3.88251 21.7002ZM6.70998 19.4383L7.17851 20.0239L6.70998 19.4383ZM3.00781 8C3.00781 5.65279 4.9106 3.75 7.25781 3.75V2.25C4.08218 2.25 1.50781 4.82436 1.50781 8H3.00781ZM3.00781 13.5V8H1.50781V13.5H3.00781ZM3.00781 14V13.5H1.50781V14H3.00781ZM3.00781 20.9194V14H1.50781V20.9194H3.00781ZM3.41399 21.1146C3.2503 21.2455 3.00781 21.129 3.00781 20.9194H1.50781C1.50781 22.3868 3.20519 23.2026 4.35103 22.2859L3.41399 21.1146ZM6.24146 18.8526L3.41399 21.1146L4.35103 22.2859L7.17851 20.0239L6.24146 18.8526ZM17.2578 18.25H7.95937V19.75H17.2578V18.25ZM21.5078 14C21.5078 16.3472 19.605 18.25 17.2578 18.25V19.75C20.4334 19.75 23.0078 17.1756 23.0078 14H21.5078ZM21.5078 8V14H23.0078V8H21.5078ZM17.2578 3.75C19.605 3.75 21.5078 5.65279 21.5078 8H23.0078C23.0078 4.82436 20.4334 2.25 17.2578 2.25V3.75ZM7.25781 3.75H17.2578V2.25H7.25781V3.75ZM7.17851 20.0239C7.40015 19.8466 7.67554 19.75 7.95937 19.75V18.25C7.33493 18.25 6.72907 18.4625 6.24146 18.8526L7.17851 20.0239Z" fill="black"/>
<circle cx="7.30762" cy="11.0498" r="1.25" fill="black"/>
<circle cx="12.3076" cy="11.0498" r="1.25" fill="black"/>
<circle cx="17.3076" cy="11.0498" r="1.25" fill="black"/>
</svg>
